<svg viewBox="0 0 820 640" xmlns="http://www.w3.org/2000/svg" font-family="JetBrains Mono, monospace">
  <rect width="820" height="640" fill="#0a0f1a"/>
  <text x="410" y="38" text-anchor="middle" fill="#e2e8f0" font-size="16" font-weight="600">OpenSourceFix AI — Pipeline Architecture</text>
  <defs>
    <marker id="arr" markerWidth="8" markerHeight="8" refX="6" refY="3" orient="auto"><path d="M0,0 L0,6 L8,3 z" fill="#6b7280"/></marker>
    <marker id="arrerr" markerWidth="8" markerHeight="8" refX="6" refY="3" orient="auto"><path d="M0,0 L0,6 L8,3 z" fill="#ef4444"/></marker>
  </defs>
  <rect x="60" y="70" width="160" height="44" rx="8" fill="#1e3a5f" stroke="#3b82f6" stroke-width="1.5"/>
  <text x="140" y="97" text-anchor="middle" fill="#93c5fd" font-size="12" font-weight="600">GitHub Issue URL</text>
  <rect x="600" y="70" width="160" height="44" rx="8" fill="#1e3a5f" stroke="#3b82f6" stroke-width="1.5"/>
  <text x="680" y="97" text-anchor="middle" fill="#93c5fd" font-size="12" font-weight="600">GitHub Repository</text>
  <line x1="140" y1="114" x2="140" y2="158" stroke="#3b82f6" stroke-width="1.5" marker-end="url(#arr)"/>
  <line x1="680" y1="114" x2="680" y2="158" stroke="#3b82f6" stroke-width="1.5" marker-end="url(#arr)"/>
  <rect x="30" y="160" width="220" height="54" rx="8" fill="#1a2a1a" stroke="#22c55e" stroke-width="1.5"/>
  <text x="140" y="183" text-anchor="middle" fill="#86efac" font-size="12" font-weight="600">Issue Analysis</text>
  <text x="140" y="200" text-anchor="middle" fill="#4ade80" font-size="10">classify · summarize · keywords</text>
  <rect x="570" y="160" width="220" height="54" rx="8" fill="#1a2a1a" stroke="#22c55e" stroke-width="1.5"/>
  <text x="680" y="183" text-anchor="middle" fill="#86efac" font-size="12" font-weight="600">Repository Analysis</text>
  <text x="680" y="200" text-anchor="middle" fill="#4ade80" font-size="10">clone · scan · AST · dep graph</text>
  <line x1="250" y1="187" x2="330" y2="258" stroke="#6b7280" stroke-width="1.5" marker-end="url(#arr)"/>
  <line x1="570" y1="187" x2="490" y2="258" stroke="#6b7280" stroke-width="1.5" marker-end="url(#arr)"/>
  <rect x="270" y="260" width="280" height="54" rx="8" fill="#1a1f2e" stroke="#8b5cf6" stroke-width="1.5"/>
  <text x="410" y="283" text-anchor="middle" fill="#c4b5fd" font-size="12" font-weight="600">Semantic Retrieval</text>
  <text x="410" y="300" text-anchor="middle" fill="#a78bfa" font-size="10">BGE embeddings · FAISS · ranked files</text>
  <line x1="410" y1="314" x2="410" y2="352" stroke="#6b7280" stroke-width="1.5" marker-end="url(#arr)"/>
  <rect x="270" y="354" width="280" height="54" rx="8" fill="#1a1f2e" stroke="#f59e0b" stroke-width="1.5"/>
  <text x="410" y="377" text-anchor="middle" fill="#fde68a" font-size="12" font-weight="600">Bug Localization</text>
  <text x="410" y="394" text-anchor="middle" fill="#fbbf24" font-size="10">file-level · function-level (LLM)</text>
  <line x1="410" y1="408" x2="410" y2="446" stroke="#6b7280" stroke-width="1.5" marker-end="url(#arr)"/>
  <rect x="270" y="448" width="280" height="54" rx="8" fill="#1f1a2e" stroke="#ec4899" stroke-width="1.5"/>
  <text x="410" y="471" text-anchor="middle" fill="#f9a8d4" font-size="12" font-weight="600">Patch Generation</text>
  <text x="410" y="488" text-anchor="middle" fill="#f472b6" font-size="10">unified diff · validator · applier</text>
  <line x1="370" y1="502" x2="310" y2="540" stroke="#6b7280" stroke-width="1.5" marker-end="url(#arr)"/>
  <line x1="450" y1="502" x2="510" y2="540" stroke="#6b7280" stroke-width="1.5" marker-end="url(#arr)"/>
  <rect x="210" y="542" width="190" height="54" rx="8" fill="#1f1a1a" stroke="#ef4444" stroke-width="1.5"/>
  <text x="305" y="565" text-anchor="middle" fill="#fca5a5" font-size="12" font-weight="600">Repair Agent</text>
  <text x="305" y="582" text-anchor="middle" fill="#f87171" font-size="10">run tests · analyze · retry</text>
  <rect x="420" y="542" width="190" height="54" rx="8" fill="#1a1f1a" stroke="#22c55e" stroke-width="1.5"/>
  <text x="515" y="565" text-anchor="middle" fill="#86efac" font-size="12" font-weight="600">PR Generator</text>
  <text x="515" y="582" text-anchor="middle" fill="#4ade80" font-size="10">title · description · markdown</text>
  <path d="M210 569 C150 569 150 471 270 471" fill="none" stroke="#ef4444" stroke-width="1.5" stroke-dasharray="4 3" marker-end="url(#arrerr)"/>
  <text x="148" y="522" fill="#f87171" font-size="9" text-anchor="middle">retry</text>
</svg>